<svg width="278" height="225" viewBox="0 0 278 225" fill="none" xmlns="http://www.w3.org/2000/svg">
<path d="M268.32 223.385C272.77 223.385 276.401 219.818 276.472 215.368C276.811 193.186 278.598 160.458 236.821 151.41C203.01 144.084 223.06 83.9996 132.002 87.8802C66.6409 90.6657 84.0008 145.762 33.1825 150.347C-0.634541 153.401 -0.929103 196.17 0.370813 215.765C0.652568 220.049 4.21293 223.379 8.50969 223.379H268.32V223.385Z" fill="#EDCB96" fill-opacity="0.7"/>
<path opacity="0.55" d="M237.443 151.709C203.633 144.384 223.682 84.2994 132.624 88.18C117.076 88.8459 106.216 92.4703 98 97.6636C100.766 97.2986 103.706 97.0424 106.837 96.9144C197.889 93.0338 177.846 153.118 211.656 160.444C252.991 169.396 251.685 201.522 251.32 223.685H268.942C273.393 223.685 277.023 220.118 277.094 215.668C277.433 193.486 279.22 160.764 237.443 151.709Z" fill="#EAEBF2"/>
<path d="M138.389 207.113C138.389 207.113 136.942 205.756 137.915 200.62C138.889 195.484 141.36 190.547 140.144 184.976C138.933 179.399 129.431 165.349 129.405 164.414C129.373 163.479 126.472 180.763 131.384 187.576C136.295 194.383 136.884 196.746 136.667 200.325C136.449 203.905 136.718 206.793 137.256 207.625L138.389 207.113Z" fill="#D6BBFB"/>
<path d="M137.487 196.784C136.917 199.077 136.571 204.821 137.48 206.197C137.563 206.326 137.685 206.255 137.839 206.018C137.563 205.07 137.378 203.406 137.903 200.626C138.876 195.491 141.348 190.554 140.131 184.983C138.921 179.405 129.418 165.356 129.393 164.421C129.393 164.421 130.827 176.133 135.642 184.189C139.1 189.952 138.057 194.492 137.487 196.784Z" fill="#9E77ED"/>
<path d="M140.118 206.761C140.118 206.761 137.326 199.794 142.058 193.762C146.79 187.73 154.353 179.981 154.5 176.914C154.5 176.914 156.447 191.482 150.287 195.606C144.133 199.73 139.817 200.389 140.88 206.735L140.118 206.761Z" fill="#D6BBFB"/>
<path d="M146.764 192.679C139.9 197.674 139.336 203.431 140.406 206.101C140.489 206.306 140.643 206.434 140.854 206.504C139.932 200.382 144.216 199.684 150.293 195.612C156.447 191.488 154.506 176.92 154.506 176.92C154.506 176.92 153.623 187.678 146.764 192.679Z" fill="#9E77ED"/>
<path d="M135.525 206.914C135.525 206.914 136.421 203.225 135.941 199.242C135.467 195.259 131.305 193.018 127.418 188.811C125.42 186.647 124.824 175.204 126.067 174.141C126.067 174.141 119.202 182.459 120.265 188.549C121.322 194.638 132.522 198.596 133.559 201.541C134.596 204.487 134.507 206.952 134.507 206.952L135.525 206.914Z" fill="#D6BBFB"/>
<path d="M123.749 177.412C121.482 183.553 123.807 190.994 131.344 195.618C136.889 199.018 135.122 206.094 135.122 206.094L136.031 203.302C136.114 202.098 136.121 200.689 135.948 199.242C135.474 195.259 131.312 193.018 127.425 188.811C125.497 186.723 124.876 176.004 125.946 174.294C125.632 174.691 124.742 175.844 123.749 177.412Z" fill="#9E77ED"/>
<path d="M125.946 174.294C126.023 174.198 126.068 174.141 126.068 174.141C126.03 174.179 125.985 174.23 125.946 174.294Z" fill="#9E77ED"/>
<path d="M141.55 206.453C141.55 206.453 143.157 200.485 147.14 199.678C151.117 198.877 155.689 192.992 155.932 191.84C155.932 191.846 155.26 202.931 141.55 206.453Z" fill="#D6BBFB"/>
<path d="M146.911 201.656C144.471 202.873 143.459 204.512 143.101 206.004C155.306 202.079 155.933 191.846 155.933 191.846C155.882 192.076 155.664 192.492 155.312 193.011C154.115 195.112 151.22 199.504 146.911 201.656Z" fill="#9E77ED"/>
<path d="M150.164 204.256H129.353L131.824 219.797C132.01 220.975 133.028 221.846 134.219 221.846H145.291C146.482 221.846 147.5 220.982 147.686 219.797L150.164 204.256Z" fill="#FEC84B"/>
<path d="M149.754 206.83L150.164 204.256H129.353L129.762 206.83H149.754Z" fill="#FDB022"/>
<path d="M145.117 204.256L142.645 219.797C142.459 220.975 141.441 221.846 140.25 221.846H145.29C146.481 221.846 147.499 220.982 147.684 219.797L150.156 204.256H145.117Z" fill="#FDB022"/>
<path d="M47.7486 119.459C49.9835 119.459 51.9301 117.832 52.2375 115.617C52.2887 115.22 52.3208 114.81 52.3208 114.4C52.3208 109.463 48.3186 105.461 43.3814 105.461C43.1765 105.461 42.978 105.467 42.7795 105.486C42.3697 100.62 38.2906 96.7969 33.3215 96.7969C28.077 96.7969 23.8251 101.049 23.8251 106.293C23.8251 106.524 23.8379 106.754 23.8507 106.985C22.3651 106.152 20.6297 105.711 18.7855 105.794C14.0149 106.012 10.0959 109.828 9.75654 114.592C9.75654 114.631 9.75014 114.669 9.75014 114.708C9.59646 117.295 11.6904 119.472 14.2838 119.472H47.7486V119.459Z" fill="#FFAE00"/>
<path d="M98.36 69.0654C100.595 69.0654 102.541 67.4389 102.849 65.2233C102.9 64.8263 102.932 64.4164 102.932 64.0066C102.932 59.0695 98.9299 55.0673 93.9928 55.0673C93.7879 55.0673 93.5894 55.0737 93.3908 55.0929C92.981 50.2262 88.902 46.4033 83.9328 46.4033C78.6884 46.4033 74.4364 50.6553 74.4364 55.8997C74.4364 56.1303 74.4492 56.3608 74.462 56.5913C72.9764 55.7589 71.2411 55.317 69.3968 55.4003C64.6262 55.618 60.7073 59.4345 60.3679 64.1987C60.3679 64.2371 60.3615 64.2755 60.3615 64.314C60.2078 66.901 62.3017 69.0782 64.8952 69.0782H98.36V69.0654Z" fill="#FFAE00"/>
<path d="M261.069 126.477C268.138 126.477 268.529 115.841 261.466 115.495C261.274 115.489 261.081 115.483 260.883 115.483C259.621 115.483 258.411 115.681 257.271 116.046C256.324 110.289 251.329 105.896 245.303 105.896C239.143 105.896 234.065 110.488 233.284 116.43C231.824 115.732 230.184 115.335 228.455 115.335C227.489 115.335 226.554 115.457 225.657 115.687C219.478 117.282 220.771 126.477 227.156 126.477H261.069Z" fill="#FFAE00"/>
<path d="M188.607 78.32L188.56 213.98C188.559 218.438 184.945 222.049 180.489 222.047L109.573 222.023C105.116 222.021 101.505 218.407 101.507 213.95L101.554 78.2897C101.555 73.834 105.169 70.2231 109.626 70.2246L180.542 70.2489C184.998 70.2504 188.609 73.8643 188.607 78.32Z" fill="#FFD700"/>
<path d="M188.607 78.32L188.56 213.98C188.559 218.438 184.945 222.049 180.489 222.047L109.573 222.023C105.116 222.021 101.505 218.407 101.507 213.95L101.554 78.2897C101.555 73.834 105.169 70.2231 109.626 70.2246L180.542 70.2489C184.998 70.2504 188.609 73.8643 188.607 78.32Z" fill="black" fill-opacity="0.16"/>
<path opacity="0.1" d="M188.563 207.635L188.608 78.32C188.61 73.8643 184.999 70.2504 180.543 70.2489L109.627 70.2246C105.17 70.2231 101.556 73.834 101.555 78.2897L180.497 199.562C184.901 205.669 184.507 205.275 188.563 207.635Z" fill="#FFAE00"/>
<path d="M180.489 223.06L109.572 223.036C104.565 223.035 100.491 218.96 100.494 213.951L100.541 78.29C100.543 73.2823 104.619 69.2089 109.627 69.2119L180.544 69.2362C185.552 69.2377 189.625 73.3127 189.622 78.3219L189.575 213.982C189.574 218.99 185.497 223.063 180.489 223.06ZM109.625 71.238C105.734 71.2365 102.567 74.4016 102.567 78.2915L102.52 213.952C102.519 217.844 105.684 221.01 109.574 221.01L180.491 221.034C184.382 221.036 187.547 217.871 187.549 213.981L187.596 78.3204C187.598 74.4289 184.432 71.2623 180.543 71.2623L109.625 71.238Z" fill="#293056"/>
<path d="M112.708 114.855C111.264 114.855 110.091 113.681 110.091 112.238C110.091 110.795 111.264 109.621 112.708 109.621H170.943C172.386 109.621 173.56 110.795 173.56 112.238C173.56 113.681 172.386 114.855 170.943 114.855H112.708Z" fill="#DBDBDB"/>
<path d="M113.407 114.288C111.964 114.288 110.79 113.115 110.79 111.671C110.79 110.228 111.964 109.055 113.407 109.055H171.642C173.086 109.055 174.259 110.228 174.259 111.671C174.259 113.115 173.086 114.288 171.642 114.288H113.407Z" fill="#625763"/>
<path d="M113.407 112.603C112.893 112.603 112.476 112.186 112.476 111.671C112.476 111.157 112.893 110.74 113.407 110.74H171.642C172.156 110.74 172.574 111.157 172.574 111.671C172.574 112.186 172.156 112.603 171.642 112.603H113.407Z" fill="#A8A8A8"/>
<path d="M164.301 172.243H123.835C121.794 172.243 120.138 170.587 120.138 168.546V114.288H169.535V167.012C169.535 169.9 167.192 172.243 164.301 172.243Z" fill="#B692F6"/>
<path d="M117.924 102.926C115.86 102.926 114.185 104.601 114.185 106.666V112.592H121.559V106.666V102.926H117.924Z" fill="#FFD700"/>
<path d="M117.924 102.926C115.86 102.926 114.185 104.601 114.185 106.666V112.592H121.559V106.666V102.926H117.924Z" fill="black" fill-opacity="0.16"/>
<path d="M120.136 106.666V114.288H121.558V106.666V102.926H120.136H117.924C117.663 102.926 117.406 102.953 117.159 103.004C118.859 103.358 120.136 104.862 120.136 106.666Z" fill="#B692F6"/>
<g filter="url(#filter0_dd_555_10558)">
<path d="M167.998 103.472H122.561H118.821C120.886 103.472 122.561 105.004 122.561 106.892V162.788C122.561 164.675 124.232 166.203 126.294 166.203H171.734V106.886C171.734 105 170.061 103.472 167.998 103.472Z" fill="#D2D6DB"/>
</g>
<path d="M166.996 102.926H121.558H117.818C119.883 102.926 121.558 104.601 121.558 106.666V167.781C121.558 169.844 123.229 171.515 125.292 171.515H170.732V106.659C170.732 104.597 169.059 102.926 166.996 102.926Z" fill="#F9F5FF"/>
<path opacity="0.3" d="M170.734 165.596L170.323 165.186L169.445 166.064L168.566 165.186L167.687 166.064L166.809 165.186L165.93 166.064L165.052 165.186L164.173 166.064L163.294 165.186L162.416 166.064L161.537 165.186L160.659 166.064L159.78 165.186L158.901 166.064L158.023 165.186L157.144 166.064L156.266 165.186L155.387 166.064L154.509 165.186L153.63 166.064L152.751 165.186L151.873 166.064L150.994 165.186L150.116 166.064L149.237 165.186L148.358 166.064L147.492 165.186L146.614 166.064L145.735 165.186L144.857 166.064L143.978 165.186L143.1 166.064L142.225 165.186L141.347 166.064L140.468 165.186L139.589 166.064L138.711 165.186L137.832 166.064L136.954 165.186L136.075 166.064L135.196 165.186L134.318 166.064L133.439 165.186L132.561 166.064L131.682 165.186L130.803 166.064L129.925 165.186L129.046 166.064L128.168 165.186L127.289 166.064L126.411 165.186V169.039C126.411 169.989 126.052 170.855 125.469 171.515H170.726V165.596H170.734Z" fill="#DBDBDB"/>
<path d="M177.31 163.411L176.432 162.532L175.553 163.411L174.674 162.532L173.796 163.411L172.917 162.532L172.039 163.411L171.16 162.532L170.282 163.411L169.403 162.532L168.524 163.411L167.646 162.532L166.767 163.411L165.889 162.532L165.01 163.411L164.131 162.532L163.253 163.411L162.374 162.532L161.496 163.411L160.617 162.532L159.738 163.411L158.86 162.532L157.981 163.411L157.103 162.532L156.224 163.411L155.346 162.532L154.467 163.411L153.588 162.532L152.71 163.411L151.831 162.532L150.953 163.411L150.074 162.532L149.195 163.411L148.317 162.532L147.438 163.411L146.56 162.532L145.681 163.411L144.802 162.532L143.924 163.411L143.045 162.532L142.167 163.411L141.288 162.532L140.409 163.411L139.531 162.532L138.652 163.411L137.774 162.532L136.895 163.411L136.017 162.532L135.138 163.411L134.259 162.532L133.381 163.411L132.502 162.532L131.624 163.411L130.745 162.532L129.866 163.411L128.988 162.532V167.774C128.988 169.839 127.313 171.514 125.248 171.514H128.988H174.428C176.491 171.514 178.161 169.843 178.161 167.781V162.534L177.31 163.411Z" fill="#FFD700"/>
<path d="M177.31 163.411L176.432 162.532L175.553 163.411L174.674 162.532L173.796 163.411L172.917 162.532L172.039 163.411L171.16 162.532L170.282 163.411L169.403 162.532L168.524 163.411L167.646 162.532L166.767 163.411L165.889 162.532L165.01 163.411L164.131 162.532L163.253 163.411L162.374 162.532L161.496 163.411L160.617 162.532L159.738 163.411L158.86 162.532L157.981 163.411L157.103 162.532L156.224 163.411L155.346 162.532L154.467 163.411L153.588 162.532L152.71 163.411L151.831 162.532L150.953 163.411L150.074 162.532L149.195 163.411L148.317 162.532L147.438 163.411L146.56 162.532L145.681 163.411L144.802 162.532L143.924 163.411L143.045 162.532L142.167 163.411L141.288 162.532L140.409 163.411L139.531 162.532L138.652 163.411L137.774 162.532L136.895 163.411L136.017 162.532L135.138 163.411L134.259 162.532L133.381 163.411L132.502 162.532L131.624 163.411L130.745 162.532L129.866 163.411L128.988 162.532V167.774C128.988 169.839 127.313 171.514 125.248 171.514H128.988H174.428C176.491 171.514 178.161 169.843 178.161 167.781V162.534L177.31 163.411Z" fill="black" fill-opacity="0.16"/>
<path d="M140.641 131.836C140.641 133.342 139.42 134.563 137.914 134.563C136.408 134.563 135.187 133.342 135.187 131.836C135.187 130.33 136.408 129.108 137.914 129.108C139.42 129.108 140.641 130.33 140.641 131.836Z" fill="#384250"/>
<path fill-rule="evenodd" clip-rule="evenodd" d="M155.37 134.018C156.575 134.018 157.552 133.041 157.552 131.836C157.552 130.631 156.575 129.654 155.37 129.654C154.165 129.654 153.188 130.631 153.188 131.836C153.188 133.041 154.165 134.018 155.37 134.018ZM155.37 134.563C156.876 134.563 158.097 133.342 158.097 131.836C158.097 130.33 156.876 129.108 155.37 129.108C153.864 129.108 152.643 130.33 152.643 131.836C152.643 133.342 153.864 134.563 155.37 134.563Z" fill="#1F2A37"/>
<path fill-rule="evenodd" clip-rule="evenodd" d="M137.913 134.019C139.118 134.019 140.095 133.042 140.095 131.837C140.095 130.632 139.118 129.655 137.913 129.655C136.708 129.655 135.731 130.632 135.731 131.837C135.731 133.042 136.708 134.019 137.913 134.019ZM137.913 134.564C139.419 134.564 140.64 133.343 140.64 131.837C140.64 130.33 139.419 129.109 137.913 129.109C136.407 129.109 135.186 130.33 135.186 131.837C135.186 133.343 136.407 134.564 137.913 134.564Z" fill="#1F2A37"/>
<path d="M158.097 131.837C158.097 133.343 156.876 134.564 155.37 134.564C153.864 134.564 152.643 133.343 152.643 131.837C152.643 130.33 153.864 129.109 155.37 129.109C156.876 129.109 158.097 130.33 158.097 131.837Z" fill="#384250"/>
<path fill-rule="evenodd" clip-rule="evenodd" d="M144.842 139.297C141.955 139.946 139.689 142.194 137.602 144.327C137.181 144.758 136.49 144.766 136.06 144.344C135.629 143.923 135.621 143.232 136.043 142.802L136.069 142.775C138.07 140.729 140.761 137.979 144.363 137.168C148.114 136.324 152.497 137.625 157.769 142.785C158.199 143.206 158.207 143.897 157.785 144.328C157.364 144.758 156.673 144.766 156.242 144.344C151.259 139.467 147.596 138.677 144.842 139.297Z" fill="#1F2A37"/>
<path fill-rule="evenodd" clip-rule="evenodd" d="M134.298 127.766C133.168 128.639 132.454 129.761 132.254 130.114C132.105 130.377 131.773 130.469 131.51 130.321C131.248 130.173 131.156 129.84 131.304 129.578C131.542 129.157 132.342 127.899 133.631 126.903C134.933 125.897 136.777 125.131 139.025 125.835C139.312 125.925 139.472 126.231 139.382 126.518C139.292 126.806 138.986 126.966 138.699 126.876C136.894 126.311 135.416 126.903 134.298 127.766Z" fill="#1F2A37"/>
<path fill-rule="evenodd" clip-rule="evenodd" d="M156.831 126.466C155.428 126.202 154.115 126.413 153.717 126.499C153.423 126.562 153.133 126.375 153.069 126.08C153.006 125.786 153.193 125.496 153.487 125.432C153.96 125.33 155.432 125.092 157.033 125.394C158.65 125.698 160.447 126.567 161.415 128.714C161.539 128.989 161.417 129.312 161.142 129.435C160.868 129.559 160.545 129.437 160.421 129.162C159.644 127.438 158.219 126.727 156.831 126.466Z" fill="#1F2A37"/>
<path d="M93.027 215.996H89.5068V220.792H93.027V215.996Z" fill="#163560"/>
<path d="M112.941 215.996H109.421V220.792H112.941V215.996Z" fill="#163560"/>
<path d="M88.7607 221.52C88.7607 220.136 89.882 219.013 91.2657 219.013C92.6493 219.013 93.7706 220.136 93.7706 221.52C93.7706 222.905 92.6493 224.027 91.2657 224.027C89.882 224.027 88.7607 222.905 88.7607 221.52Z" fill="#1F4777"/>
<path d="M89.7441 221.519C89.7441 220.678 90.4249 219.997 91.2639 219.997C92.1029 219.997 92.7837 220.678 92.7837 221.519C92.7837 222.36 92.1029 223.041 91.2639 223.041C90.4249 223.041 89.7441 222.36 89.7441 221.519Z" fill="#163560"/>
<path d="M108.68 221.52C108.68 220.136 109.801 219.013 111.185 219.013C112.568 219.013 113.69 220.136 113.69 221.52C113.69 222.905 112.568 224.027 111.185 224.027C109.801 224.027 108.68 222.905 108.68 221.52Z" fill="#1F4777"/>
<path d="M109.663 221.519C109.663 220.678 110.344 219.997 111.183 219.997C112.022 219.997 112.703 220.678 112.703 221.519C112.703 222.36 112.022 223.041 111.183 223.041C110.344 223.041 109.663 222.36 109.663 221.519Z" fill="#163560"/>
<path d="M119.648 218.685H83.1868C79.6907 218.685 76.8574 215.851 76.8574 212.355V211.528H125.501V212.832C125.501 216.064 122.879 218.685 119.648 218.685Z" fill="#DC6803"/>
<path d="M127.167 151.437V209.489C127.167 210.19 127.089 210.871 126.94 211.528H120.132C119.075 211.528 118.09 211.836 117.259 212.367C116.744 212.693 116.292 213.105 115.919 213.586C115.209 214.493 114.788 215.634 114.788 216.876V218.686H88.1148V216.876C88.1148 215.01 87.1616 213.366 85.7119 212.409C85.3035 212.138 84.8509 211.922 84.3724 211.772C83.8678 211.614 83.3291 211.528 82.7705 211.528H75.4098C75.2617 210.871 75.1836 210.19 75.1836 209.489V151.437C75.1836 146.357 79.2964 142.242 84.3704 142.242H117.978C123.056 142.242 127.167 146.357 127.167 151.437Z" fill="#FDB022"/>
<path d="M110.963 142.212C104.672 139.733 99.4298 139.858 96.14 140.396C92.5718 140.983 90.4633 142.172 90.4433 142.184L90.0088 141.429C90.0989 141.377 92.2454 140.162 95.9538 139.545C99.3598 138.979 104.786 138.84 111.282 141.403L110.963 142.212Z" fill="#163560"/>
<path d="M85.7126 142.242V212.409C85.3041 212.138 84.8516 211.922 84.373 211.772V142.242H85.7126Z" fill="#F79009"/>
<path d="M96.4343 142.241H95.0947V218.685H96.4343V142.241Z" fill="#F79009"/>
<path d="M106.435 142.242H105.096V218.686H106.435V142.242Z" fill="#F79009"/>
<path d="M117.259 142.241V212.366C116.744 212.692 116.291 213.104 115.919 213.585V142.241H117.259Z" fill="#F79009"/>
<path d="M98.8492 21.0749C100.126 19.9298 101.239 18.4984 102.186 16.7807C103.132 15.0409 103.606 13.3783 103.606 11.7927C103.606 10.2071 103.408 8.98492 103.011 8.12607C102.615 7.26722 102.064 6.83779 101.36 6.83779C100.655 6.83779 99.7301 7.47643 98.585 8.75369C97.4618 10.0089 96.4378 11.6606 95.5129 13.7086C94.61 15.7566 94.1586 17.7166 94.1586 19.5885C94.1586 20.5354 94.2907 21.3062 94.555 21.9008C94.8192 22.4733 95.1495 22.7596 95.5459 22.7596C96.4709 22.7596 97.5719 22.198 98.8492 21.0749ZM95.579 26.7566C93.9493 26.7566 92.4959 25.9638 91.2186 24.3782C89.9414 22.7706 89.3027 21.174 89.3027 19.5885C89.3027 17.5624 89.6881 15.4924 90.4589 13.3783C91.2296 11.2422 92.1876 9.40334 93.3327 7.86181C94.4999 6.29826 95.7772 5.02099 97.1645 4.03C98.5519 3.017 99.8292 2.51049 100.996 2.51049C103.132 2.51049 104.883 3.4244 106.249 5.25222C107.614 7.05801 108.297 9.09503 108.297 11.3633C108.297 13.6315 107.724 15.9328 106.579 18.2671C105.434 20.5794 103.848 22.5724 101.822 24.2461C99.8182 25.9197 97.7371 26.7566 95.579 26.7566Z" fill="#1F2A37"/>
<path d="M121.514 9.77771C122.329 9.77771 123.199 10.5044 124.124 11.9579C125.071 13.4113 125.544 14.8648 125.544 16.3182C125.544 17.1991 125.17 18.2451 124.421 19.4563C123.673 20.6675 122.726 21.8127 121.58 22.8917C120.457 23.9488 119.147 24.8517 117.65 25.6004C116.174 26.3492 114.765 26.7235 113.421 26.7235H113.025C111.638 32.4933 110.658 35.3781 110.085 35.3781C109.623 35.3781 109.138 34.9928 108.632 34.222C108.103 33.4512 107.839 32.8126 107.839 32.3061C107.839 31.7996 108.158 30.247 108.797 27.6485C110.691 19.9408 111.638 14.127 111.638 10.2071C111.638 9.54648 111.957 9.21615 112.596 9.21615C113.124 9.21615 113.796 9.51345 114.611 10.108C115.425 10.7026 115.932 11.4734 116.13 12.4203C118.002 10.6586 119.797 9.77771 121.514 9.77771ZM114.049 22.7926C115.767 22.4623 117.385 21.5154 118.905 19.9518C120.446 18.3883 121.217 17.0339 121.217 15.8888C121.217 14.7436 120.898 14.1711 120.259 14.1711C119.334 14.1711 118.354 14.6996 117.319 15.7566C116.901 16.1971 116.438 16.8467 115.932 17.7056C115.425 18.5644 114.985 19.5664 114.611 20.7116L114.049 22.7926Z" fill="#1F2A37"/>
<path d="M139.289 9.77771C140.104 9.77771 140.974 10.5044 141.898 11.9579C142.845 13.4113 143.319 14.8648 143.319 16.3182C143.319 17.1991 142.944 18.2451 142.196 19.4563C141.447 20.6675 140.5 21.8127 139.355 22.8917C138.232 23.9488 136.922 24.8517 135.424 25.6004C133.949 26.3492 132.539 26.7235 131.196 26.7235H130.799C129.412 32.4933 128.432 35.3781 127.86 35.3781C127.397 35.3781 126.913 34.9928 126.406 34.222C125.878 33.4512 125.613 32.8126 125.613 32.3061C125.613 31.7996 125.933 30.247 126.571 27.6485C128.465 19.9408 129.412 14.127 129.412 10.2071C129.412 9.54648 129.731 9.21615 130.37 9.21615C130.899 9.21615 131.57 9.51345 132.385 10.108C133.2 10.7026 133.706 11.4734 133.905 12.4203C135.776 10.6586 137.571 9.77771 139.289 9.77771ZM131.823 22.7926C133.541 22.4623 135.16 21.5154 136.679 19.9518C138.221 18.3883 138.992 17.0339 138.992 15.8888C138.992 14.7436 138.672 14.1711 138.034 14.1711C137.109 14.1711 136.129 14.6996 135.094 15.7566C134.675 16.1971 134.213 16.8467 133.706 17.7056C133.2 18.5644 132.759 19.5664 132.385 20.7116L131.823 22.7926Z" fill="#1F2A37"/>
<path d="M155.61 9.77771C156.447 9.77771 157.273 10.2732 158.087 11.2642C158.902 12.2552 159.31 13.1471 159.31 13.9398C159.31 14.4684 159.078 14.7326 158.616 14.7326C158.352 14.7326 157.966 14.6335 157.46 14.4353C156.953 14.2151 156.436 14.105 155.907 14.105C155.401 14.105 154.641 14.2812 153.628 14.6335C152.637 14.9859 152.141 15.4483 152.141 16.0209C152.141 16.2411 152.439 16.5604 153.033 16.9789C153.628 17.3973 154.278 17.8267 154.982 18.2671C155.687 18.7076 156.337 19.3242 156.931 20.117C157.526 20.8877 157.823 21.7356 157.823 22.6605C157.823 23.5634 157.151 24.4773 155.808 25.4022C154.487 26.3271 152.923 26.7896 151.117 26.7896C149.334 26.7896 147.803 26.3822 146.526 25.5674C145.249 24.7526 144.61 23.9158 144.61 23.0569C144.61 22.198 144.962 21.7686 145.667 21.7686C145.953 21.7686 146.295 21.8787 146.691 22.0989C147.792 22.7376 149.158 23.0569 150.787 23.0569C152.439 23.0569 153.265 22.8367 153.265 22.3962C153.265 21.9558 152.945 21.4713 152.307 20.9428C151.69 20.3923 151.007 19.8858 150.259 19.4233C149.532 18.9608 148.849 18.3993 148.211 17.7386C147.594 17.0559 147.286 16.3953 147.286 15.7566C147.286 14.5675 148.365 13.2792 150.523 11.8918C152.681 10.4824 154.377 9.77771 155.61 9.77771Z" fill="#1F2A37"/>
<path d="M163.168 23.8497C163.168 23.2551 163.421 22.6715 163.927 22.0989C164.434 21.5044 164.94 21.2071 165.447 21.2071C165.953 21.2071 166.537 21.8017 167.198 22.9908C167.88 24.18 168.222 25.0719 168.222 25.6665C168.222 25.9528 168.035 26.2721 167.66 26.6244C167.308 26.9768 166.955 27.153 166.603 27.153C165.942 27.153 165.205 26.7456 164.39 25.9308C163.575 25.1159 163.168 24.4223 163.168 23.8497ZM166.57 0.957951C166.57 0.319317 166.911 0 167.594 0C168.277 0 169.18 0.484481 170.303 1.45344C171.448 2.42241 172.021 3.12711 172.021 3.56754C172.021 5.02099 171.503 8.02697 170.468 12.5855C169.455 17.122 168.574 19.3903 167.825 19.3903C167.231 19.3903 166.647 19.082 166.075 18.4653C165.502 17.8487 165.205 17.2101 165.183 16.5494C165.139 16.3072 165.227 15.6025 165.447 14.4353C165.667 13.2462 165.909 11.4294 166.174 8.98492C166.438 6.51847 166.57 3.84282 166.57 0.957951Z" fill="#1F2A37"/>
<path d="M178.942 23.8497C178.942 23.2551 179.195 22.6715 179.702 22.0989C180.208 21.5044 180.715 21.2071 181.221 21.2071C181.728 21.2071 182.312 21.8017 182.972 22.9908C183.655 24.18 183.996 25.0719 183.996 25.6665C183.996 25.9528 183.809 26.2721 183.435 26.6244C183.082 26.9768 182.73 27.153 182.378 27.153C181.717 27.153 180.979 26.7456 180.164 25.9308C179.35 25.1159 178.942 24.4223 178.942 23.8497ZM182.345 0.957951C182.345 0.319317 182.686 0 183.369 0C184.051 0 184.954 0.484481 186.077 1.45344C187.222 2.42241 187.795 3.12711 187.795 3.56754C187.795 5.02099 187.277 8.02697 186.242 12.5855C185.229 17.122 184.349 19.3903 183.6 19.3903C183.005 19.3903 182.422 19.082 181.849 18.4653C181.276 17.8487 180.979 17.2101 180.957 16.5494C180.913 16.3072 181.001 15.6025 181.221 14.4353C181.442 13.2462 181.684 11.4294 181.948 8.98492C182.212 6.51847 182.345 3.84282 182.345 0.957951Z" fill="#1F2A37"/>
<defs>
<filter id="filter0_dd_555_10558" x="98.8213" y="103.472" width="92.9121" height="102.731" filterUnits="userSpaceOnUse" color-interpolation-filters="sRGB">
<feFlood flood-opacity="0" result="BackgroundImageFix"/>
<feColorMatrix in="SourceAlpha" type="matrix" values="0 0 0 0 0 0 0 0 0 0 0 0 0 0 0 0 0 0 127 0" result="hardAlpha"/>
<feMorphology radius="4" operator="erode" in="SourceAlpha" result="effect1_dropShadow_555_10558"/>
<feOffset dy="20"/>
<feGaussianBlur stdDeviation="12"/>
<feComposite in2="hardAlpha" operator="out"/>
<feColorMatrix type="matrix" values="0 0 0 0 0.121569 0 0 0 0 0.164706 0 0 0 0 0.215686 0 0 0 0.08 0"/>
<feBlend mode="normal" in2="BackgroundImageFix" result="effect1_dropShadow_555_10558"/>
<feColorMatrix in="SourceAlpha" type="matrix" values="0 0 0 0 0 0 0 0 0 0 0 0 0 0 0 0 0 0 127 0" result="hardAlpha"/>
<feMorphology radius="4" operator="erode" in="SourceAlpha" result="effect2_dropShadow_555_10558"/>
<feOffset dy="8"/>
<feGaussianBlur stdDeviation="4"/>
<feComposite in2="hardAlpha" operator="out"/>
<feColorMatrix type="matrix" values="0 0 0 0 0.121569 0 0 0 0 0.164706 0 0 0 0 0.215686 0 0 0 0.03 0"/>
<feBlend mode="normal" in2="effect1_dropShadow_555_10558" result="effect2_dropShadow_555_10558"/>
<feBlend mode="normal" in="SourceGraphic" in2="effect2_dropShadow_555_10558" result="shape"/>
</filter>
</defs>
</svg>
