<svg width="40" height="40" viewBox="0 0 40 40" fill="none" xmlns="http://www.w3.org/2000/svg">
<rect width="39.68" height="39.68" rx="19.84" fill="#FFD700"/>
<rect width="39.68" height="39.68" rx="19.84" fill="black" fill-opacity="0.16"/>
<path fill-rule="evenodd" clip-rule="evenodd" d="M26.2392 20.205C24.7201 20.82 23.0804 21.1994 21.3654 21.2977C21.0696 21.3146 20.7716 21.3232 20.4716 21.3232C20.1716 21.3232 19.8736 21.3146 19.5778 21.2977C17.8624 21.1994 16.2224 20.8199 14.703 20.2045C11.5145 18.9133 8.85763 16.5835 7.15186 13.6348C9.8106 9.03858 14.78 5.94629 20.4716 5.94629C26.1633 5.94629 31.1326 9.03858 33.7914 13.6348C32.0854 16.5839 29.4282 18.9138 26.2392 20.205Z" fill="white"/>
<path d="M14.7028 21.401C14.3355 21.2523 13.9752 21.0897 13.6227 20.9141C12.4768 21.7212 11.5082 22.7265 10.7788 23.8735C12.0186 25.823 13.9496 27.3633 16.267 28.217C17.3713 28.6238 18.5633 28.8747 19.81 28.9397H21.1092C22.3557 28.8747 24.5465 30.1096 21.3652 33.2258C23.683 32.3722 28.9006 25.8232 30.1404 23.8735C29.4131 22.7298 28.4479 21.727 27.3064 20.921C26.9579 21.0942 26.6019 21.2545 26.239 21.4015C24.72 22.0165 23.0802 22.3959 21.3652 22.4942C21.0695 22.5111 20.7715 22.5197 20.4715 22.5197C20.1714 22.5197 19.8734 22.5111 19.5777 22.4942C17.8623 22.3959 16.2222 22.0163 14.7028 21.401Z" fill="white"/>
<rect x="14.0483" y="11.668" width="12.8737" height="4.59775" rx="2.29888" fill="#162550"/>
<ellipse cx="24.0358" cy="13.9416" rx="0.842922" ry="0.842921" fill="#04FED1"/>
<ellipse cx="20.4591" cy="25.2834" rx="0.842922" ry="0.842921" fill="#162550"/>
<ellipse cx="17.088" cy="13.9416" rx="0.842922" ry="0.842921" fill="#04FED1"/>
<ellipse cx="17.088" cy="25.2834" rx="0.842922" ry="0.842921" fill="#162550"/>
<ellipse cx="23.8312" cy="25.2834" rx="0.842922" ry="0.842921" fill="#162550"/>
</svg>
